<?xml version="1.0" encoding="UTF-8" standalone="no"?>
<!-- Created with Inkscape (http://www.inkscape.org/) -->

<svg
   width="84mm"
   height="23mm"
   viewBox="0 0 84 23"
   version="1.1"
   id="svg2596"
   inkscape:export-filename="pecsikatifi.png"
   inkscape:export-xdpi="96"
   inkscape:export-ydpi="96"
   inkscape:version="1.2.2 (732a01da63, 2022-12-09)"
   sodipodi:docname="pecsikatifi.svg"
   xmlns:inkscape="http://www.inkscape.org/namespaces/inkscape"
   xmlns:sodipodi="http://sodipodi.sourceforge.net/DTD/sodipodi-0.dtd"
   xmlns="http://www.w3.org/2000/svg"
   xmlns:svg="http://www.w3.org/2000/svg">
  <sodipodi:namedview
     id="namedview2598"
     pagecolor="#ffffff"
     bordercolor="#000000"
     borderopacity="0.25"
     inkscape:showpageshadow="2"
     inkscape:pageopacity="0.0"
     inkscape:pagecheckerboard="0"
     inkscape:deskcolor="#d1d1d1"
     inkscape:document-units="mm"
     showgrid="false"
     inkscape:zoom="2.1089995"
     inkscape:cx="52.868671"
     inkscape:cy="-9.4831696"
     inkscape:window-width="1920"
     inkscape:window-height="1017"
     inkscape:window-x="-8"
     inkscape:window-y="-8"
     inkscape:window-maximized="1"
     inkscape:current-layer="layer1" />
  <defs
     id="defs2593" />
  <g
     inkscape:label="Réteg 1"
     inkscape:groupmode="layer"
     id="layer1">
    <path
       style="display:inline;fill:#dbbb00;fill-opacity:1;stroke:#000000;stroke-width:0.19;stroke-opacity:0.99999982;opacity:1;stroke-dasharray:none"
       d="M 3.3713647,20.071821 C 2.736011,19.214947 2.437389,18.210195 2.6127974,17.519519 2.6631662,17.321264 2.9714309,16.550844 3.2978428,15.807495 4.3158554,13.489253 4.5127346,12.537688 4.5127346,9.9357993 V 8.3652152 l 0.282588,-0.09432 c 0.1554352,-0.05198 0.5937662,-0.185589 0.9740449,-0.29701 0.3803199,-0.1115387 0.7422464,-0.2234647 0.8043096,-0.2490237 0.1540812,-0.06348 0.1477928,0.9416794 -0.013438,2.1623828 -0.067706,0.5117847 -0.1135603,0.9405907 -0.102071,0.9528947 0.011488,0.01201 0.1590667,-0.175718 0.3279712,-0.417865 0.9699725,-1.3906174 2.0507868,-2.4811568 2.5692051,-2.5923075 0.3898703,-0.08359 0.7632146,0.1697487 1.1352036,0.7703444 0.284106,0.4586717 0.327869,0.6050237 0.354592,1.1855334 0.05283,1.1497097 -0.377408,2.5620637 -1.1725044,3.8483477 -0.7122189,1.152177 -2.1780105,2.564106 -2.8004797,2.697551 -0.3580487,0.07679 -0.6623333,-0.142376 -0.7947282,-0.572378 -0.2074145,-0.673733 0.083606,-1.029887 0.9348476,-1.143877 l 0.4953576,-0.06621 0.381007,-0.932037 c 0.4394287,-1.074943 0.7108658,-2.124372 0.7108658,-2.748288 0,-0.336822 -0.046367,-0.481616 -0.2057526,-0.642115 l -0.205794,-0.207231 -0.5280099,0.617721 c -0.5696179,0.666374 -1.1777768,1.83182 -1.4820613,2.840139 -0.1004293,0.333224 -0.4358895,1.654482 -0.7451801,2.936113 -0.5308619,2.19967 -0.8423068,3.304161 -1.0973305,3.891486 -0.082888,0.190697 -0.1739927,0.256307 -0.356192,0.256307 -0.1913602,0 -0.3241653,-0.106853 -0.6077279,-0.489339 z m 68.7844863,-0.03839 c -0.184989,-0.600867 -0.0513,-2.809953 0.298489,-4.925074 0.400345,-2.42232 0.48913,-3.429702 0.426791,-4.843732 -0.06053,-1.3744301 0.0082,-1.5769001 0.580215,-1.6802981 0.220904,-0.04004 0.351195,-0.113657 0.351195,-0.1983137 0,-0.210558 0.763124,-2.3108059 1.22157,-3.3619575 0.740011,-1.6966975 1.310326,-2.4161967 1.72615,-2.177649 0.401648,0.2304313 1.052009,1.3628532 1.052009,1.8317742 0,0.1689774 -0.255085,0.6098611 -0.797212,1.3779227 -0.725555,1.0279362 -1.079151,1.6753869 -1.247328,2.2838406 l -0.06135,0.2222857 0.71297,-0.04428 0.712978,-0.04428 -0.05622,0.427824 c -0.108901,0.8289564 -0.0515,0.7859864 -0.955014,0.7149044 l -0.802915,-0.06316 -0.193863,0.5404877 c -0.295647,0.824299 -0.676448,2.488654 -0.840123,3.671997 -0.119623,0.864745 -0.13701,1.443638 -0.09325,3.104818 0.06166,2.341154 0.06093,2.344405 -0.698463,2.955942 -0.540535,0.435307 -0.749479,0.54812 -1.01514,0.54812 -0.171972,0 -0.237892,-0.06997 -0.321406,-0.341251 z M 46.582213,16.253228 c -1.321528,-1.626779 -1.724293,-2.379199 -1.724293,-3.221124 0,-0.608274 0.273499,-1.31745 0.657132,-1.703755 0.187329,-0.188687 0.234395,-0.201927 0.304993,-0.08571 0.06842,0.112598 0.130446,0.0789 0.345277,-0.188851 0.732994,-0.913355 0.722602,-1.036007 -0.06709,-0.789977 -0.721195,0.224749 -1.072413,0.441714 -1.477383,0.91269 -0.429786,0.499798 -0.614088,1.078025 -0.985925,3.092998 -0.278956,1.511746 -0.53678,2.220166 -0.824036,2.26424 -0.498558,0.07648 -1.344794,-1.101741 -1.411617,-1.965491 -0.03385,-0.43786 0.002,-0.569007 0.36165,-1.298648 0.447675,-0.909909 0.492198,-1.082861 0.750986,-2.917417 0.329602,-2.3367108 0.999188,-5.1514239 1.413658,-5.9425215 0.239678,-0.4574481 1.17193,-1.1399637 1.879605,-1.3760636 0.660056,-0.2202147 1.226298,-0.242613 1.226298,-0.048373 0,0.073456 -0.291502,0.7341763 -0.647786,1.4680503 -0.798636,1.6450073 -1.424029,3.1968503 -1.864207,4.6258564 -0.544188,1.7666774 -0.553215,1.7303424 0.225274,0.9073407 0.692904,-0.7325577 1.862679,-1.6371021 2.527341,-1.9543491 0.476318,-0.2273347 0.687426,-0.120009 1.112052,0.5658627 0.266061,0.4296977 0.785824,1.7018211 0.71583,1.7520281 -0.01385,0.01059 -0.237318,0.06832 -0.496628,0.129988 -0.744689,0.176837 -1.534924,0.642236 -1.968711,1.159446 l -0.387223,0.461696 0.190457,0.338558 c 0.34298,0.609605 0.676879,1.113954 1.335828,2.01759 0.356951,0.489492 0.648987,0.930162 0.648987,0.979269 0,0.0872 -1.167016,1.323692 -1.298631,1.376065 -0.03641,0.01526 -0.280383,-0.23716 -0.542043,-0.55926 z M 13.249882,16.573605 C 12.867501,16.314531 12.239338,15.53261 12.000758,15.018724 11.821749,14.63313 11.800905,14.488787 11.84718,13.954982 c 0.118146,-1.362597 0.75669,-3.305868 1.433241,-4.3617367 0.478617,-0.7469474 0.998789,-1.1231714 2.057691,-1.4882261 0.498127,-0.171713 0.90637,-0.2436567 1.437972,-0.2533897 1.2359,-0.02268 1.474879,0.2923397 1.474879,1.9437998 0,1.8322567 -0.247443,2.0616007 -3.217166,2.9820897 -1.149986,0.356456 -1.133091,0.324715 -0.694863,1.305541 0.369753,0.827553 0.453996,0.915881 0.797426,0.836076 0.415219,-0.09644 1.416746,-0.650156 2.057466,-1.137424 l 0.551439,-0.419391 -0.06206,0.639998 c -0.03416,0.351997 -0.106174,0.699656 -0.160164,0.772582 -0.173336,0.234195 -1.378123,1.036629 -2.205729,1.469106 -0.972107,0.507991 -1.645673,0.615364 -2.067458,0.329598 z m 2.126854,-5.039642 c 0.663881,-0.346676 0.814854,-0.656911 0.860175,-1.7677657 0.03344,-0.8213527 0.02544,-0.8730604 -0.127203,-0.8265674 -0.08966,0.02735 -0.283974,0.07542 -0.431878,0.1073047 -0.242037,0.05198 -0.313036,0.157581 -0.709471,1.0555654 -0.417855,0.946484 -0.630174,1.525406 -0.630174,1.71819 0,0.131193 0.505708,-0.01059 1.038551,-0.286779 z m 5.424988,4.937863 c -0.356972,-0.277196 -0.72932,-0.744997 -1.056954,-1.327866 -0.44072,-0.784112 -0.126762,-2.840182 0.703512,-4.607176 0.85476,-1.8191081 2.028432,-2.6376508 3.84222,-2.6796385 0.786768,-0.01814 1.011221,0.07891 1.368029,0.5925104 0.155734,0.224082 0.349668,1.0813194 0.453677,2.0053451 l 0.05325,0.473152 -0.90079,0.202606 c -0.495429,0.111541 -0.940808,0.202608 -0.98969,0.202608 -0.04894,0 -0.114852,-0.30407 -0.146551,-0.67576 -0.08843,-1.0369587 -0.221571,-1.6544524 -0.356592,-1.6544524 -0.344733,0 -0.572377,0.208063 -0.832899,0.7613047 -0.448046,0.9514737 -0.87257,2.2129717 -1.04251,3.0980027 l -0.159374,0.830015 0.347965,0.63867 c 0.319508,0.586478 0.367189,0.634255 0.582882,0.584529 0.409894,-0.09462 1.607111,-0.764995 2.142978,-1.200119 0.28424,-0.230855 0.523342,-0.410353 0.531293,-0.398941 0.0072,0.01201 -0.0041,0.286611 -0.0278,0.611569 L 25.272,14.519 24.640309,15.057115 c -1.227212,1.045409 -2.388903,1.676293 -3.093872,1.680178 -0.30456,9.85e-4 -0.482185,-0.06168 -0.744697,-0.265467 z M 28.7178,16.606644 C 28.293708,16.46442 27.16273,15.867013 26.872478,15.63194 l -0.203987,-0.165199 0.441664,-0.943462 0.441666,-0.943478 1.017909,0.524707 c 0.900154,0.463992 1.08261,0.525447 1.577168,0.531177 0.44186,0.0045 0.579732,-0.02781 0.656885,-0.156647 0.150369,-0.251213 0.01989,-0.402673 -1.192005,-1.382986 -0.607594,-0.491515 -1.200663,-1.033074 -1.317916,-1.203458 -0.628543,-0.91325 -0.457064,-1.874925 0.532625,-2.9871831 0.998347,-1.1220374 1.932221,-1.3503994 3.108675,-0.7602627 0.325971,0.163506 0.75513,0.4315127 0.953733,0.5955477 0.198582,0.16405 0.375231,0.3088437 0.392517,0.3217507 0.03447,0.02555 -0.86224,1.6183154 -0.911151,1.6183154 -0.01651,0 -0.295,-0.174221 -0.618653,-0.387181 -1.04374,-0.6867477 -1.79406,-0.8802554 -2.179714,-0.5621457 l -0.20007,0.165017 0.548609,0.5552837 c 0.30172,0.305399 0.787527,0.764994 1.079502,1.021318 0.773903,0.679369 1.163157,1.274797 1.163157,1.77928 0,0.54821 -0.273755,1.292286 -0.775617,2.10823 -0.471434,0.766445 -0.806504,1.134597 -1.164696,1.279665 -0.325509,0.131796 -1.060718,0.115322 -1.504979,-0.03356 z m 31.087866,-0.169567 c -0.155107,-0.166271 -0.402653,-0.575248 -0.550127,-0.908791 -0.394765,-0.89292 -0.365077,-1.612873 0.153681,-3.729007 0.219929,-0.897138 0.424984,-1.725535 0.455667,-1.8408727 0.05304,-0.199615 0.03231,-0.20971 -0.43039,-0.20971 H 58.94829 l 0.0555,-0.3029207 c 0.14652,-0.7984557 0.11707,-0.7664897 0.732983,-0.7961437 l 0.563658,-0.02706 0.283183,-0.9261264 c 0.277131,-0.9063884 0.289994,-0.9280164 0.60423,-1.0158004 1.09695,-0.306532 1.431427,-0.3865172 1.465104,-0.350423 0.02082,0.02237 -0.09693,0.5385367 -0.261825,1.1470364 -0.164862,0.6085137 -0.284044,1.1338714 -0.264872,1.1674844 0.01928,0.03356 0.431889,0.03765 0.9171,0.01059 l 0.882233,-0.05199 -0.05027,0.224007 c -0.0277,0.1231847 -0.07735,0.3838587 -0.110359,0.5791807 l -0.06012,0.3551527 -0.947024,-0.02886 c -0.7833,-0.02389 -0.953416,-0.0045 -0.983924,0.110791 -0.112494,0.4262527 -0.402303,2.0427087 -0.520223,2.9014267 -0.188252,1.370969 -0.17744,1.656296 0.0754,1.992043 l 0.210646,0.279614 0.658435,-0.248069 0.658435,-0.248085 v 0.322629 c 0,0.502866 -0.21518,0.835213 -0.760926,1.175255 -1.282782,0.799229 -1.841094,0.901703 -2.290126,0.420358 z M 34.030674,16.122143 c 0.32553,-3.134776 0.653112,-5.051659 1.13812,-6.6599384 0.247986,-0.8222607 0.349862,-1.0440337 0.509554,-1.1091164 0.239338,-0.09749 2.082926,-0.5477087 2.116841,-0.5168907 0.01303,0.01201 -0.116854,0.3736397 -0.288744,0.8039124 -0.725637,1.8164931 -1.19303,4.0513191 -1.30695,6.2488891 l -0.06093,1.176524 -0.748648,0.240499 c -0.411772,0.132399 -0.89886,0.268278 -1.082403,0.302241 l -0.333686,0.06182 z m 17.131185,0.351043 c -0.542331,-0.368079 -1.364881,-1.541369 -1.525701,-2.17626 -0.07058,-0.278812 -0.05253,-0.458158 0.09366,-0.932095 0.365998,-1.186048 1.568087,-3.099423 2.535403,-4.0355724 0.522809,-0.5059787 1.663368,-1.4447564 1.755273,-1.4447564 0.03334,0 0.336261,0.207443 0.673105,0.461015 l 0.612406,0.4610467 0.474624,-0.4144327 c 0.261047,-0.227939 0.551369,-0.414419 0.645172,-0.414419 0.373016,0 0.86664,0.8619657 0.865265,1.5109271 -8.1e-4,0.44569 -0.274935,1.1460247 -0.712866,1.8221467 -0.283829,0.438192 -0.28619,0.450888 -0.282958,1.513785 0.002,0.864248 0.04769,1.243466 0.232353,1.957403 0.125994,0.487027 0.253178,0.951369 0.282639,1.031882 0.04288,0.117438 -0.123357,0.205358 -0.840993,0.444617 -0.492024,0.164034 -0.940716,0.297386 -0.997095,0.296374 -0.117531,-9.84e-4 -0.269458,-0.706787 -0.409342,-1.898351 l -0.09673,-0.82456 -0.447532,0.591528 c -0.830991,1.09843 -1.866936,2.044689 -2.378389,2.17245 -0.13777,0.03447 -0.31288,-0.01059 -0.478216,-0.122733 z m 2.074329,-2.625002 c 0.888162,-1.028374 1.141524,-1.520133 1.251638,-2.429377 0.05335,-0.43996 0.180055,-1.064573 0.281706,-1.388049 0.10521,-0.3347207 0.152142,-0.6231304 0.108934,-0.6694414 -0.104246,-0.11185 -1.046891,0.8194054 -1.550177,1.5312564 -0.481355,0.680837 -1.101291,2.045006 -1.256254,2.764386 -0.10836,0.503063 -0.107611,0.507416 0.136909,0.716372 0.305341,0.261008 0.382145,0.221725 1.027214,-0.525147 z m 14.31588,2.536311 c 0,-0.405592 0.328207,-3.14776 0.482206,-4.028768 0.179881,-1.029238 0.50343,-2.3950527 0.761091,-3.2129014 0.15367,-0.4877517 0.261968,-0.6820327 0.428935,-0.7696174 0.208071,-0.108971 2.081541,-0.5970287 2.122759,-0.5528497 0.0093,0.01059 -0.110699,0.3344167 -0.26879,0.7186814 -0.802617,1.9509651 -1.349687,4.6751461 -1.351719,6.7310331 l -6.98e-4,0.721119 -0.320225,0.143434 c -0.323027,0.144643 -1.58479,0.511543 -1.759366,0.511543 -0.0518,0 -0.09427,-0.11775 -0.09427,-0.261674 z m 9.75551,-0.54694 c 0.191493,-2.245739 0.669237,-4.958826 1.134814,-6.4445444 0.234548,-0.7485017 0.323899,-0.9235267 0.523158,-1.0248664 0.245474,-0.124849 1.997402,-0.5757167 2.048776,-0.5272617 0.01559,0.01527 -0.153886,0.5150337 -0.376637,1.1118661 -0.688338,1.8442884 -1.044039,3.7019824 -1.225263,6.3991694 l -0.04769,0.709783 -0.754506,0.242402 c -0.414972,0.133309 -0.893618,0.267991 -1.063662,0.299231 l -0.309147,0.05684 z M 38.72107,13.445057 c -0.02647,-0.07376 -0.01179,-0.347311 0.03231,-0.607927 0.04411,-0.2606 0.05971,-0.495884 0.03468,-0.522817 -0.02502,-0.02675 -0.234815,-0.04896 -0.465968,-0.04896 -0.458262,0 -0.478769,-0.03596 -0.365896,-0.6408 0.05335,-0.285795 0.06381,-0.291282 0.555143,-0.291282 h 0.500815 l 0.05704,-0.490157 c 0.03128,-0.269593 0.08586,-0.539926 0.120906,-0.600761 0.06791,-0.117751 0.878806,-0.3453607 0.951783,-0.2671597 0.0239,0.02555 -0.02051,0.3187137 -0.09858,0.6514997 -0.07807,0.3328 -0.141802,0.627908 -0.141802,0.655825 0,0.02794 0.219397,0.05078 0.48754,0.05078 0.386875,0 0.477692,0.02735 0.43985,0.133163 -0.02625,0.0733 -0.07397,0.282984 -0.105959,0.466048 -0.05827,0.332588 -0.05868,0.332862 -0.525158,0.332862 -0.510489,0 -0.478124,-0.04126 -0.598987,0.765705 -0.0593,0.39613 -0.06309,0.399771 -0.502744,0.484819 -0.245053,0.04745 -0.339256,0.02963 -0.375212,-0.07089 z m 26.176125,0.02706 c -0.03128,-0.0541 -0.02964,-0.347614 0.0031,-0.652483 l 0.06002,-0.554285 H 64.46782 c -0.428237,0 -0.486802,-0.02131 -0.447923,-0.163114 0.02451,-0.08963 0.06863,-0.309917 0.09828,-0.489355 l 0.05366,-0.326225 h 0.491552 0.491562 l 0.08997,-0.559258 0.08996,-0.559259 0.465813,-0.122127 c 0.256193,-0.06713 0.483386,-0.1032377 0.504847,-0.0801 0.02134,0.02298 -0.02195,0.2936707 -0.09632,0.6015347 -0.07448,0.307846 -0.135297,0.606097 -0.135297,0.662774 0,0.06257 0.184476,0.103071 0.469229,0.103071 h 0.469229 l -0.105107,0.442742 -0.105108,0.442759 -0.483858,0.02767 -0.483879,0.02766 -0.05827,0.551745 c -0.05703,0.539566 -0.06545,0.553864 -0.380319,0.647648 -0.401596,0.119556 -0.429242,0.119401 -0.498855,-9.85e-4 z M 15.424262,6.4630851 c 0.362696,-0.6345868 0.702926,-1.3785408 0.907622,-1.9846233 l 0.19017,-0.5631745 0.755767,0.076477 c 1.28228,0.129679 1.23628,0.047921 0.551984,0.9818833 -0.327889,0.4475024 -0.744523,1.0548243 -0.92584,1.3495975 L 16.57427,6.8591958 H 15.886043 15.197829 Z M 36.355926,6.0699597 C 36.119808,5.8569693 36.075882,5.7539656 36.075882,5.4133204 c 0,-0.6907984 0.619206,-1.2179678 1.641086,-1.3971929 0.475354,-0.083281 0.52958,-0.00452 0.531355,0.7728832 7.99e-4,0.3993184 0.05653,0.70239 0.174577,0.9503088 0.126804,0.2664649 0.145833,0.3822247 0.07109,0.4317992 -0.05622,0.037335 -0.497286,0.086599 -0.980098,0.1097321 -0.853991,0.040816 -0.885463,0.035076 -1.157906,-0.2107373 z m 33.570264,0.053963 c -0.528205,-0.3575134 -0.441091,-1.269629 0.159219,-1.6672549 0.366585,-0.242826 1.318615,-0.5320829 1.502384,-0.4564812 0.10639,0.043829 0.137925,0.1954578 0.137925,0.6630167 0,0.433675 0.05417,0.7258625 0.190282,1.0261842 0.104667,0.2309465 0.163488,0.448667 0.130682,0.4838382 -0.03293,0.035219 -0.460828,0.080712 -0.951128,0.1014186 -0.781167,0.03279 -0.925872,0.013596 -1.169364,-0.1505387 z m 9.629391,-0.084946 C 79.366027,5.8357809 79.290525,5.6663193 79.290751,5.4446381 79.291438,4.7760135 79.785463,4.308528 80.747875,4.065733 c 0.668826,-0.1687359 0.716322,-0.1257532 0.716322,0.6501562 0,0.4825819 0.04811,0.7603828 0.179974,1.0372619 0.09899,0.207988 0.157333,0.4024323 0.129656,0.4321013 -0.0277,0.029615 -0.478441,0.072862 -1.001722,0.095983 l -0.951354,0.042025 z"
       id="path434"
       inkscape:label="pecsikatifi_text" />
  </g>
</svg>
